# xmcd CD database file
#
# Track frame offsets:
#	150
#	14628
#	38714
#	53470
#	71250
#	84561
#	96908
#	112368
#	125523
#	139719
#	152160
#	164324
#	177367
#	190042
#
# Disc length: 2737 seconds
#
# Revision: 4
# Processed by: cddbd v1.5.2PL0 Copyright (c) Steve Scherf et al.
# Submitted via: CDex 1.51
#
DISCID=ba0aaf0e
DTITLE=Dizzy Gillespie - Salt Peanuts  [CD 02-10]
DYEAR=1900
DGENRE=Jazz
TTITLE0=Salt Peanuts
TTITLE1=Sometime I'm Happy
TTITLE2=The Workers' Train
TTITLE3=Relaxxin' With Lee
TTITLE4=Special Delivery
TTITLE5=St James Infirmary
TTITLE6=Bloomdido
TTITLE7=Blue 'N' Boogie
TTITLE8=Blues In The Night
TTITLE9=Good Bait
TTITLE10=That's Earl, Brother
TTITLE11=The Bluest Blues
TTITLE12=Yesterday
TTITLE13=My Melancholy Baby
EXTD=
EXTT0=
EXTT1=
EXTT2=
EXTT3=
EXTT4=
EXTT5=
EXTT6=
EXTT7=
EXTT8=
EXTT9=
EXTT10=
EXTT11=
EXTT12=
EXTT13=
PLAYORDER=
